NotoSansImperialAramaic-Regular.ufo
<glyph name="u10840" format="2">
  <advance width="829"/>
  <unicode hex="10840"/>
  <outline>
    <contour>
      <point x="568" y="-24" type="curve"/>
      <point x="631" y="15" type="line"/>
      <point x="620" y="51"/>
      <point x="618" y="111"/>
      <point x="618" y="167" type="curve" smooth="yes"/>
      <point x="618" y="303"/>
      <point x="659" y="491"/>
      <point x="780" y="671" type="curve"/>
      <point x="715" y="724" type="line"/>
      <point x="596" y="561"/>
      <point x="537" y="355"/>
      <point x="530" y="218" type="curve"/>
      <point x="514" y="251"/>
      <point x="496" y="283"/>
      <point x="478" y="316" type="curve" smooth="yes"/>
      <point x="403" y="453"/>
      <point x="310" y="591"/>
      <point x="197" y="729" type="curve"/>
      <point x="129" y="684" type="line"/>
      <point x="159" y="632"/>
      <point x="160" y="558"/>
      <point x="160" y="523" type="curve" smooth="yes"/>
      <point x="160" y="420"/>
      <point x="119" y="313"/>
      <point x="49" y="253" type="curve"/>
      <point x="114" y="195" type="line"/>
      <point x="184" y="261"/>
      <point x="247" y="373"/>
      <point x="247" y="484" type="curve" smooth="yes"/>
      <point x="247" y="498"/>
      <point x="246" y="514"/>
      <point x="244" y="531" type="curve"/>
      <point x="303" y="446"/>
      <point x="357" y="360"/>
      <point x="413" y="266" type="curve" smooth="yes"/>
      <point x="468" y="174"/>
      <point x="521" y="70"/>
    </contour>
  </outline>
</glyph>
<glyph name="u10841" format="2">
  <advance width="724"/>
  <unicode hex="10841"/>
  <outline>
    <contour>
      <point x="106" y="-24" type="line"/>
      <point x="579" y="85"/>
      <point x="646" y="298"/>
      <point x="646" y="584" type="curve" smooth="yes"/>
      <point x="646" y="629"/>
      <point x="645" y="676"/>
      <point x="641" y="724" type="curve"/>
      <point x="556" y="698" type="line"/>
      <point x="507" y="620"/>
      <point x="360" y="561"/>
      <point x="286" y="561" type="curve" smooth="yes"/>
      <point x="206" y="561"/>
      <point x="164" y="588"/>
      <point x="132" y="724" type="curve"/>
      <point x="49" y="698" type="line"/>
      <point x="65" y="620"/>
      <point x="106" y="480"/>
      <point x="273" y="480" type="curve" smooth="yes"/>
      <point x="364" y="480"/>
      <point x="470" y="514"/>
      <point x="557" y="589" type="curve"/>
      <point x="550" y="341"/>
      <point x="521" y="166"/>
      <point x="78" y="54" type="curve"/>
    </contour>
  </outline>
</glyph>
<glyph name="u10842" format="2">
  <advance width="829"/>
  <unicode hex="10842"/>
  <outline>
    <contour>
      <point x="785" y="-24" type="curve"/>
      <point x="814" y="54" type="line"/>
      <point x="566" y="190"/>
      <point x="557" y="434"/>
      <point x="557" y="603" type="curve" smooth="yes"/>
      <point x="557" y="617"/>
      <point x="558" y="690"/>
      <point x="560" y="724" type="curve"/>
      <point x="473" y="698" type="line"/>
      <point x="473" y="694"/>
      <point x="467" y="680"/>
      <point x="467" y="675" type="curve"/>
      <point x="424" y="577"/>
      <point x="228" y="301"/>
      <point x="20" y="201" type="curve"/>
      <point x="72" y="131" type="line"/>
      <point x="247" y="227"/>
      <point x="375" y="377"/>
      <point x="470" y="513" type="curve"/>
      <point x="477" y="343"/>
      <point x="529" y="94"/>
    </contour>
  </outline>
</glyph>
<glyph name="u10843" format="2">
  <advance width="633"/>
  <unicode hex="10843"/>
  <outline>
    <contour>
      <point x="471" y="-24" type="line"/>
      <point x="483" y="160"/>
      <point x="509" y="523"/>
      <point x="555" y="704" type="curve"/>
      <point x="479" y="725" type="line"/>
      <point x="476" y="718"/>
      <point x="474" y="711"/>
      <point x="472" y="705" type="curve"/>
      <point x="401" y="583"/>
      <point x="285" y="557"/>
      <point x="229" y="557" type="curve" smooth="yes"/>
      <point x="168" y="557"/>
      <point x="119" y="583"/>
      <point x="103" y="714" type="curve"/>
      <point x="20" y="688" type="line"/>
      <point x="33" y="557"/>
      <point x="90" y="477"/>
      <point x="221" y="477" type="curve" smooth="yes"/>
      <point x="304" y="477"/>
      <point x="386" y="512"/>
      <point x="441" y="558" type="curve"/>
      <point x="407" y="346"/>
      <point x="389" y="55"/>
      <point x="389" y="0" type="curve"/>
    </contour>
  </outline>
</glyph>
<glyph name="u10844" format="2">
  <advance width="824"/>
  <unicode hex="10844"/>
  <outline>
    <contour>
      <point x="574" y="-24" type="line"/>
      <point x="733" y="210"/>
      <point x="746" y="372"/>
      <point x="746" y="447" type="curve" smooth="yes"/>
      <point x="746" y="475"/>
      <point x="711" y="546"/>
      <point x="667" y="610" type="curve" smooth="yes"/>
      <point x="626" y="669"/>
      <point x="582" y="725"/>
      <point x="542" y="725" type="curve" smooth="yes"/>
      <point x="502" y="725"/>
      <point x="376" y="676"/>
      <point x="273" y="629" type="curve" smooth="yes"/>
      <point x="49" y="528" type="line"/>
      <point x="78" y="460" type="line"/>
      <point x="273" y="547" type="line" smooth="yes"/>
      <point x="281" y="550"/>
      <point x="290" y="555"/>
      <point x="300" y="559" type="curve"/>
      <point x="289" y="480"/>
      <point x="252" y="328"/>
      <point x="145" y="162" type="curve"/>
      <point x="212" y="109" type="line"/>
      <point x="354" y="318"/>
      <point x="385" y="506"/>
      <point x="391" y="599" type="curve"/>
      <point x="448" y="623"/>
      <point x="503" y="644"/>
      <point x="526" y="644" type="curve" smooth="yes"/>
      <point x="558" y="644"/>
      <point x="658" y="475"/>
      <point x="658" y="424" type="curve" smooth="yes"/>
      <point x="658" y="380"/>
      <point x="644" y="239"/>
      <point x="507" y="28" type="curve"/>
    </contour>
  </outline>
</glyph>
<glyph name="u10845" format="2">
  <advance width="427"/>
  <unicode hex="10845"/>
  <outline>
    <contour>
      <point x="317" y="-24" type="line"/>
      <point x="341" y="88"/>
      <point x="349" y="272"/>
      <point x="349" y="379" type="curve" smooth="yes"/>
      <point x="349" y="445" type="line" smooth="yes"/>
      <point x="349" y="607"/>
      <point x="295" y="723"/>
      <point x="142" y="723" type="curve" smooth="yes"/>
      <point x="109" y="723"/>
      <point x="63" y="717"/>
      <point x="29" y="708" type="curve"/>
      <point x="37" y="633" type="line"/>
      <point x="39" y="633" type="line"/>
      <point x="67" y="639"/>
      <point x="96" y="643"/>
      <point x="125" y="643" type="curve" smooth="yes"/>
      <point x="259" y="643"/>
      <point x="261" y="523"/>
      <point x="261" y="376" type="curve" smooth="yes"/>
      <point x="261" y="236"/>
      <point x="246" y="89"/>
      <point x="230" y="0" type="curve"/>
    </contour>
  </outline>
</glyph>
<glyph name="u10846" format="2">
  <advance width="363"/>
  <unicode hex="10846"/>
  <outline>
    <contour>
      <point x="199" y="-24" type="line"/>
      <point x="224" y="113"/>
      <point x="236" y="327"/>
      <point x="236" y="501" type="curve" smooth="yes"/>
      <point x="236" y="588"/>
      <point x="231" y="688"/>
      <point x="228" y="714" type="curve"/>
      <point x="141" y="724" type="line"/>
      <point x="144" y="687"/>
      <point x="148" y="569"/>
      <point x="148" y="504" type="curve" smooth="yes"/>
      <point x="148" y="321"/>
      <point x="132" y="117"/>
      <point x="112" y="0" type="curve"/>
    </contour>
  </outline>
</glyph>
<glyph name="u10847" format="2">
  <advance width="743"/>
  <unicode hex="10847"/>
  <outline>
    <contour>
      <point x="83" y="-24" type="line"/>
      <point x="251" y="147"/>
      <point x="285" y="412"/>
      <point x="285" y="539" type="curve" smooth="yes"/>
      <point x="285" y="561"/>
      <point x="285" y="577"/>
      <point x="284" y="591" type="curve"/>
      <point x="313" y="585"/>
      <point x="342" y="582"/>
      <point x="372" y="582" type="curve" smooth="yes"/>
      <point x="440" y="582"/>
      <point x="499" y="594"/>
      <point x="561" y="619" type="curve"/>
      <point x="572" y="580"/>
      <point x="577" y="529"/>
      <point x="577" y="467" type="curve" smooth="yes"/>
      <point x="577" y="371"/>
      <point x="551" y="233"/>
      <point x="486" y="104" type="curve"/>
      <point x="561" y="58" type="line"/>
      <point x="635" y="193"/>
      <point x="665" y="334"/>
      <point x="665" y="486" type="curve" smooth="yes"/>
      <point x="665" y="550"/>
      <point x="657" y="655"/>
      <point x="608" y="726" type="curve"/>
      <point x="544" y="682"/>
      <point x="435" y="663"/>
      <point x="390" y="663" type="curve" smooth="yes"/>
      <point x="279" y="663"/>
      <point x="189" y="705"/>
      <point x="141" y="764" type="curve"/>
      <point x="92" y="703" type="line"/>
      <point x="115" y="672"/>
      <point x="150" y="644"/>
      <point x="194" y="623" type="curve"/>
      <point x="196" y="601"/>
      <point x="197" y="580"/>
      <point x="197" y="573" type="curve" smooth="yes"/>
      <point x="197" y="434"/>
      <point x="169" y="187"/>
      <point x="20" y="37" type="curve"/>
    </contour>
  </outline>
</glyph>
<glyph name="u10848" format="2">
  <advance width="715"/>
  <unicode hex="10848"/>
  <outline>
    <contour>
      <point x="337" y="-21" type="curve" smooth="yes"/>
      <point x="586" y="-21"/>
      <point x="637" y="237"/>
      <point x="637" y="440" type="curve" smooth="yes"/>
      <point x="637" y="537"/>
      <point x="612" y="570"/>
      <point x="563" y="570" type="curve" smooth="yes"/>
      <point x="542" y="570"/>
      <point x="514" y="564"/>
      <point x="478" y="554" type="curve" smooth="yes"/>
      <point x="436" y="542"/>
      <point x="388" y="523"/>
      <point x="360" y="512" type="curve"/>
      <point x="381" y="441" type="line"/>
      <point x="445" y="465"/>
      <point x="493" y="484"/>
      <point x="509" y="484" type="curve" smooth="yes"/>
      <point x="525" y="484"/>
      <point x="549" y="484"/>
      <point x="549" y="411" type="curve" smooth="yes"/>
      <point x="549" y="256"/>
      <point x="503" y="59"/>
      <point x="345" y="59" type="curve" smooth="yes"/>
      <point x="220" y="59"/>
      <point x="166" y="198"/>
      <point x="166" y="338" type="curve" smooth="yes"/>
      <point x="166" y="477"/>
      <point x="203" y="569"/>
      <point x="316" y="658" type="curve"/>
      <point x="265" y="724" type="line"/>
      <point x="137" y="620"/>
      <point x="78" y="510"/>
      <point x="78" y="340" type="curve" smooth="yes"/>
      <point x="78" y="168"/>
      <point x="155" y="-21"/>
    </contour>
  </outline>
</glyph>
<glyph name="u10849" format="2">
  <advance width="620"/>
  <unicode hex="10849"/>
  <outline>
    <contour>
      <point x="542" y="370" type="curve"/>
      <point x="571" y="448" type="line"/>
      <point x="444" y="518"/>
      <point x="388" y="607"/>
      <point x="350" y="708" type="curve"/>
      <point x="278" y="740" type="line"/>
      <point x="232" y="678"/>
      <point x="148" y="586"/>
      <point x="49" y="506" type="curve"/>
      <point x="97" y="433" type="line"/>
      <point x="175" y="495"/>
      <point x="237" y="558"/>
      <point x="291" y="619" type="curve"/>
      <point x="335" y="522"/>
      <point x="412" y="431"/>
    </contour>
  </outline>
</glyph>
<glyph name="u1084A" format="2">
  <advance width="574"/>
  <unicode hex="1084A"/>
  <outline>
    <contour>
      <point x="23" y="-234" type="line"/>
      <point x="374" y="-172"/>
      <point x="436" y="27"/>
      <point x="436" y="239" type="curve" smooth="yes"/>
      <point x="436" y="364" type="line" smooth="yes"/>
      <point x="436" y="510"/>
      <point x="461" y="635"/>
      <point x="496" y="704" type="curve"/>
      <point x="411" y="725" type="line"/>
      <point x="405" y="711"/>
      <point x="401" y="697"/>
      <point x="394" y="683" type="curve" smooth="yes"/>
      <point x="351" y="594"/>
      <point x="284" y="526"/>
      <point x="232" y="526" type="curve" smooth="yes"/>
      <point x="188" y="526"/>
      <point x="164" y="564"/>
      <point x="164" y="622" type="curve" smooth="yes"/>
      <point x="164" y="645"/>
      <point x="166" y="671"/>
      <point x="170" y="699" type="curve"/>
      <point x="84" y="724" type="line"/>
      <point x="80" y="693"/>
      <point x="76" y="659"/>
      <point x="76" y="625" type="curve" smooth="yes"/>
      <point x="76" y="534"/>
      <point x="111" y="446"/>
      <point x="219" y="446" type="curve" smooth="yes"/>
      <point x="273" y="446"/>
      <point x="318" y="467"/>
      <point x="354" y="498" type="curve"/>
      <point x="350" y="461"/>
      <point x="348" y="422"/>
      <point x="348" y="382" type="curve" smooth="yes"/>
      <point x="348" y="216" type="line" smooth="yes"/>
      <point x="348" y="36"/>
      <point x="291" y="-102"/>
      <point x="5" y="-154" type="curve"/>
    </contour>
  </outline>
</glyph>
<glyph name="u1084B" format="2">
  <advance width="597"/>
  <unicode hex="1084B"/>
  <outline>
    <contour>
      <point x="457" y="-63" type="curve"/>
      <point x="542" y="-63" type="line"/>
      <point x="555" y="-37"/>
      <point x="588" y="36"/>
      <point x="588" y="92" type="curve" smooth="yes"/>
      <point x="588" y="133"/>
      <point x="562" y="142"/>
      <point x="541" y="142" type="curve" smooth="yes"/>
      <point x="525" y="142"/>
      <point x="490" y="123"/>
      <point x="470" y="114" type="curve" smooth="yes"/>
      <point x="385" y="77"/>
      <point x="316" y="60"/>
      <point x="278" y="60" type="curve" smooth="yes"/>
      <point x="188" y="60"/>
      <point x="166" y="109"/>
      <point x="166" y="232" type="curve" smooth="yes"/>
      <point x="166" y="347"/>
      <point x="196" y="506"/>
      <point x="285" y="694" type="curve"/>
      <point x="205" y="723" type="line"/>
      <point x="108" y="516"/>
      <point x="78" y="355"/>
      <point x="78" y="228" type="curve" smooth="yes"/>
      <point x="78" y="77"/>
      <point x="127" y="-21"/>
      <point x="268" y="-21" type="curve" smooth="yes"/>
      <point x="325" y="-21"/>
      <point x="426" y="3"/>
      <point x="497" y="40" type="curve"/>
      <point x="493" y="8"/>
      <point x="470" y="-39"/>
    </contour>
  </outline>
</glyph>
<glyph name="u1084C" format="2">
  <advance width="710"/>
  <unicode hex="1084C"/>
  <outline>
    <contour>
      <point x="401" y="-127" type="line"/>
      <point x="554" y="111"/>
      <point x="632" y="322"/>
      <point x="632" y="444" type="curve" smooth="yes"/>
      <point x="632" y="487"/>
      <point x="626" y="534"/>
      <point x="608" y="562" type="curve"/>
      <point x="539" y="551"/>
      <point x="485" y="549"/>
      <point x="424" y="549" type="curve" smooth="yes"/>
      <point x="386" y="549"/>
      <point x="346" y="555"/>
      <point x="308" y="567" type="curve"/>
      <point x="347" y="639"/>
      <point x="378" y="711"/>
      <point x="401" y="776" type="curve"/>
      <point x="318" y="809" type="line"/>
      <point x="297" y="740"/>
      <point x="267" y="671"/>
      <point x="231" y="605" type="curve"/>
      <point x="196" y="629"/>
      <point x="167" y="661"/>
      <point x="148" y="701" type="curve"/>
      <point x="78" y="652" type="line"/>
      <point x="100" y="613"/>
      <point x="137" y="569"/>
      <point x="189" y="535" type="curve"/>
      <point x="138" y="456"/>
      <point x="80" y="385"/>
      <point x="20" y="332" type="curve"/>
      <point x="82" y="275" type="line"/>
      <point x="152" y="336"/>
      <point x="214" y="414"/>
      <point x="266" y="496" type="curve"/>
      <point x="310" y="479"/>
      <point x="363" y="468"/>
      <point x="423" y="468" type="curve" smooth="yes"/>
      <point x="459" y="468"/>
      <point x="497" y="470"/>
      <point x="540" y="474" type="curve"/>
      <point x="542" y="463"/>
      <point x="544" y="450"/>
      <point x="544" y="430" type="curve" smooth="yes"/>
      <point x="544" y="333"/>
      <point x="465" y="131"/>
      <point x="334" y="-80" type="curve"/>
    </contour>
  </outline>
</glyph>
<glyph name="u1084D" format="2">
  <advance width="436"/>
  <unicode hex="1084D"/>
  <outline>
    <contour>
      <point x="180" y="-127" type="line"/>
      <point x="299" y="45"/>
      <point x="358" y="227"/>
      <point x="358" y="359" type="curve" smooth="yes"/>
      <point x="358" y="401"/>
      <point x="349" y="451"/>
      <point x="308" y="451" type="curve" smooth="yes"/>
      <point x="282" y="451"/>
      <point x="216" y="441"/>
      <point x="184" y="441" type="curve" smooth="yes"/>
      <point x="161" y="441"/>
      <point x="151" y="458"/>
      <point x="151" y="485" type="curve" smooth="yes"/>
      <point x="151" y="551"/>
      <point x="199" y="634"/>
      <point x="230" y="679" type="curve"/>
      <point x="161" y="727" type="line"/>
      <point x="112" y="665"/>
      <point x="63" y="568"/>
      <point x="63" y="485" type="curve" smooth="yes"/>
      <point x="63" y="373"/>
      <point x="125" y="360"/>
      <point x="156" y="360" type="curve" smooth="yes"/>
      <point x="185" y="360"/>
      <point x="226" y="370"/>
      <point x="250" y="370" type="curve" smooth="yes"/>
      <point x="270" y="370"/>
      <point x="270" y="335"/>
      <point x="270" y="307" type="curve" smooth="yes"/>
      <point x="270" y="228"/>
      <point x="201" y="40"/>
      <point x="109" y="-85" type="curve"/>
    </contour>
  </outline>
</glyph>
<glyph name="u1084E" format="2">
  <advance width="743"/>
  <unicode hex="1084E"/>
  <outline>
    <contour>
      <point x="126" y="-127" type="line"/>
      <point x="598" y="-18"/>
      <point x="665" y="181"/>
      <point x="665" y="467" type="curve" smooth="yes"/>
      <point x="665" y="497"/>
      <point x="665" y="527"/>
      <point x="663" y="559" type="curve"/>
      <point x="591" y="589" type="line"/>
      <point x="548" y="541"/>
      <point x="453" y="494"/>
      <point x="366" y="463" type="curve"/>
      <point x="403" y="532"/>
      <point x="421" y="599"/>
      <point x="436" y="667" type="curve"/>
      <point x="367" y="727" type="line"/>
      <point x="291" y="671"/>
      <point x="131" y="608"/>
      <point x="39" y="576" type="curve"/>
      <point x="65" y="502" type="line"/>
      <point x="186" y="539"/>
      <point x="271" y="580"/>
      <point x="339" y="618" type="curve"/>
      <point x="320" y="555"/>
      <point x="295" y="491"/>
      <point x="256" y="433" type="curve"/>
      <point x="286" y="362" type="line"/>
      <point x="346" y="365"/>
      <point x="491" y="412"/>
      <point x="577" y="474" type="curve"/>
      <point x="576" y="224"/>
      <point x="543" y="63"/>
      <point x="97" y="-48" type="curve"/>
    </contour>
  </outline>
</glyph>
<glyph name="u1084F" format="2">
  <advance width="509"/>
  <unicode hex="1084F"/>
  <outline>
    <contour>
      <point x="218" y="378" type="curve" smooth="yes"/>
      <point x="385" y="378"/>
      <point x="445" y="547"/>
      <point x="460" y="713" type="curve"/>
      <point x="376" y="722" type="line"/>
      <point x="366" y="592"/>
      <point x="315" y="459"/>
      <point x="221" y="459" type="curve" smooth="yes"/>
      <point x="149" y="459"/>
      <point x="137" y="517"/>
      <point x="137" y="572" type="curve" smooth="yes"/>
      <point x="137" y="608"/>
      <point x="146" y="650"/>
      <point x="164" y="694" type="curve"/>
      <point x="85" y="731" type="line"/>
      <point x="63" y="676"/>
      <point x="49" y="622"/>
      <point x="49" y="574" type="curve" smooth="yes"/>
      <point x="49" y="479"/>
      <point x="95" y="378"/>
    </contour>
  </outline>
</glyph>
<glyph name="u10850" format="2">
  <advance width="563"/>
  <unicode hex="10850"/>
  <outline>
    <contour>
      <point x="130" y="-24" type="line"/>
      <point x="425" y="183"/>
      <point x="485" y="389"/>
      <point x="485" y="594" type="curve"/>
      <point x="441" y="646"/>
      <point x="336" y="703"/>
      <point x="234" y="729" type="curve"/>
      <point x="159" y="661"/>
      <point x="106" y="614"/>
      <point x="49" y="576" type="curve"/>
      <point x="95" y="518" type="line"/>
      <point x="151" y="551"/>
      <point x="202" y="593"/>
      <point x="246" y="635" type="curve"/>
      <point x="309" y="611"/>
      <point x="368" y="579"/>
      <point x="397" y="554" type="curve"/>
      <point x="392" y="406"/>
      <point x="333" y="217"/>
      <point x="79" y="42" type="curve"/>
    </contour>
  </outline>
</glyph>
<glyph name="u10851" format="2">
  <advance width="603"/>
  <unicode hex="10851"/>
  <outline>
    <contour>
      <point x="194" y="-127" type="line"/>
      <point x="227" y="-24"/>
      <point x="261" y="153"/>
      <point x="261" y="344" type="curve" smooth="yes"/>
      <point x="261" y="390"/>
      <point x="260" y="430"/>
      <point x="255" y="473" type="curve"/>
      <point x="290" y="456"/>
      <point x="324" y="453"/>
      <point x="356" y="453" type="curve" smooth="yes"/>
      <point x="477" y="453"/>
      <point x="540" y="545"/>
      <point x="554" y="643" type="curve"/>
      <point x="470" y="669" type="line"/>
      <point x="451" y="565"/>
      <point x="404" y="533"/>
      <point x="349" y="533" type="curve" smooth="yes"/>
      <point x="267" y="533"/>
      <point x="225" y="602"/>
      <point x="170" y="727" type="curve"/>
      <point x="98" y="685" type="line"/>
      <point x="138" y="608"/>
      <point x="173" y="493"/>
      <point x="173" y="351" type="curve" smooth="yes"/>
      <point x="173" y="168"/>
      <point x="146" y="3"/>
      <point x="112" y="-103" type="curve"/>
    </contour>
  </outline>
</glyph>
<glyph name="u10852" format="2">
  <advance width="631"/>
  <unicode hex="10852"/>
  <outline>
    <contour>
      <point x="194" y="-127" type="line"/>
      <point x="227" y="-23"/>
      <point x="250" y="83"/>
      <point x="258" y="219" type="curve"/>
      <point x="428" y="314"/>
      <point x="553" y="472"/>
      <point x="553" y="596" type="curve" smooth="yes"/>
      <point x="553" y="714"/>
      <point x="476" y="724"/>
      <point x="424" y="724" type="curve" smooth="yes"/>
      <point x="369" y="724"/>
      <point x="285" y="695"/>
      <point x="209" y="646" type="curve"/>
      <point x="199" y="675"/>
      <point x="187" y="702"/>
      <point x="174" y="727" type="curve"/>
      <point x="98" y="685" type="line"/>
      <point x="138" y="608"/>
      <point x="173" y="444"/>
      <point x="173" y="301" type="curve" smooth="yes"/>
      <point x="173" y="150"/>
      <point x="153" y="50"/>
      <point x="112" y="-103" type="curve"/>
    </contour>
    <contour>
      <point x="261" y="315" type="curve"/>
      <point x="261" y="325" type="line" smooth="yes"/>
      <point x="261" y="403"/>
      <point x="251" y="490"/>
      <point x="231" y="570" type="curve"/>
      <point x="291" y="609"/>
      <point x="367" y="644"/>
      <point x="406" y="644" type="curve" smooth="yes"/>
      <point x="440" y="644"/>
      <point x="465" y="637"/>
      <point x="465" y="595" type="curve" smooth="yes"/>
      <point x="465" y="521"/>
      <point x="387" y="394"/>
    </contour>
  </outline>
</glyph>
<glyph name="u10853" format="2">
  <advance width="671"/>
  <unicode hex="10853"/>
  <outline>
    <contour>
      <point x="345" y="-276" type="line"/>
      <point x="510" y="-104"/>
      <point x="526" y="154"/>
      <point x="533" y="364" type="curve" smooth="yes"/>
      <point x="538" y="510"/>
      <point x="558" y="635"/>
      <point x="593" y="704" type="curve"/>
      <point x="508" y="725" type="line"/>
      <point x="504" y="716"/>
      <point x="500" y="710"/>
      <point x="497" y="697" type="curve"/>
      <point x="428" y="584"/>
      <point x="313" y="557"/>
      <point x="258" y="557" type="curve" smooth="yes"/>
      <point x="198" y="557"/>
      <point x="148" y="583"/>
      <point x="132" y="714" type="curve"/>
      <point x="49" y="688" type="line"/>
      <point x="63" y="557"/>
      <point x="119" y="477"/>
      <point x="250" y="477" type="curve" smooth="yes"/>
      <point x="330" y="477"/>
      <point x="407" y="509"/>
      <point x="462" y="551" type="curve"/>
      <point x="455" y="500"/>
      <point x="449" y="442"/>
      <point x="445" y="382" type="curve" smooth="yes"/>
      <point x="429" y="144"/>
      <point x="438" y="-26"/>
      <point x="277" y="-229" type="curve"/>
    </contour>
  </outline>
</glyph>
<glyph name="u10854" format="2">
  <advance width="916"/>
  <unicode hex="10854"/>
  <outline>
    <contour>
      <point x="444" y="-12" type="curve" smooth="yes"/>
      <point x="517" y="-12"/>
      <point x="590" y="38"/>
      <point x="677" y="140" type="curve" smooth="yes"/>
      <point x="742" y="216"/>
      <point x="812" y="321"/>
      <point x="877" y="443" type="curve"/>
      <point x="795" y="473" type="line"/>
      <point x="738" y="368"/>
      <point x="676" y="276"/>
      <point x="624" y="210" type="curve" smooth="yes"/>
      <point x="553" y="121"/>
      <point x="489" y="69"/>
      <point x="459" y="69" type="curve" smooth="yes"/>
      <point x="416" y="69"/>
      <point x="364" y="150"/>
      <point x="316" y="256" type="curve"/>
      <point x="397" y="359"/>
      <point x="460" y="475"/>
      <point x="499" y="592" type="curve"/>
      <point x="419" y="624" type="line"/>
      <point x="384" y="531"/>
      <point x="334" y="432"/>
      <point x="278" y="348" type="curve"/>
      <point x="222" y="495"/>
      <point x="177" y="657"/>
      <point x="166" y="724" type="curve"/>
      <point x="78" y="699" type="line"/>
      <point x="107" y="520"/>
      <point x="282" y="-12"/>
    </contour>
  </outline>
</glyph>
<glyph name="u10855" format="2">
  <advance width="636"/>
  <unicode hex="10855"/>
  <outline>
    <contour>
      <point x="46" y="-127" type="line"/>
      <point x="141" y="66"/>
      <point x="198" y="273"/>
      <point x="198" y="479" type="curve" smooth="yes"/>
      <point x="198" y="495"/>
      <point x="198" y="511"/>
      <point x="197" y="527" type="curve"/>
      <point x="298" y="591"/>
      <point x="404" y="646"/>
      <point x="433" y="646" type="curve" smooth="yes"/>
      <point x="451" y="646"/>
      <point x="470" y="611"/>
      <point x="470" y="597" type="curve" smooth="yes"/>
      <point x="470" y="506"/>
      <point x="395" y="299"/>
      <point x="323" y="147" type="curve"/>
      <point x="405" y="117" type="line"/>
      <point x="476" y="261"/>
      <point x="558" y="491"/>
      <point x="558" y="602" type="curve" smooth="yes"/>
      <point x="558" y="640"/>
      <point x="511" y="729"/>
      <point x="459" y="729" type="curve" smooth="yes"/>
      <point x="396" y="729"/>
      <point x="292" y="678"/>
      <point x="189" y="615" type="curve"/>
      <point x="183" y="655"/>
      <point x="175" y="693"/>
      <point x="164" y="726" type="curve"/>
      <point x="84" y="697" type="line"/>
      <point x="101" y="648"/>
      <point x="110" y="562"/>
      <point x="110" y="476" type="curve" smooth="yes"/>
      <point x="110" y="267"/>
      <point x="54" y="95"/>
      <point x="-29" y="-90" type="curve"/>
    </contour>
  </outline>
</glyph>
<glyph name="u10857" format="2">
  <advance width="687"/>
  <unicode hex="10857"/>
  <outline>
    <contour>
      <point x="320" y="-24" type="line"/>
      <point x="343" y="45"/>
      <point x="356" y="172"/>
      <point x="356" y="247" type="curve" smooth="yes"/>
      <point x="356" y="284"/>
      <point x="354" y="328"/>
      <point x="345" y="378" type="curve"/>
      <point x="438" y="379"/>
      <point x="539" y="395"/>
      <point x="628" y="424" type="curve"/>
      <point x="597" y="500" type="line"/>
      <point x="528" y="480"/>
      <point x="441" y="465"/>
      <point x="357" y="460" type="curve"/>
      <point x="386" y="532"/>
      <point x="446" y="608"/>
      <point x="509" y="658" type="curve"/>
      <point x="458" y="724" type="line"/>
      <point x="395" y="672"/>
      <point x="340" y="600"/>
      <point x="303" y="526" type="curve"/>
      <point x="284" y="587"/>
      <point x="258" y="656"/>
      <point x="225" y="728" type="curve"/>
      <point x="145" y="699" type="line"/>
      <point x="187" y="610"/>
      <point x="216" y="531"/>
      <point x="236" y="459" type="curve"/>
      <point x="176" y="462"/>
      <point x="124" y="469"/>
      <point x="68" y="479" type="curve"/>
      <point x="59" y="399" type="line"/>
      <point x="118" y="389"/>
      <point x="183" y="382"/>
      <point x="256" y="379" type="curve"/>
      <point x="265" y="333"/>
      <point x="269" y="291"/>
      <point x="269" y="252" type="curve" smooth="yes"/>
      <point x="269" y="151"/>
      <point x="257" y="49"/>
      <point x="239" y="1" type="curve"/>
    </contour>
  </outline>
</glyph>
<glyph name="u10858" format="2">
  <advance width="386"/>
  <unicode hex="10858"/>
  <outline>
    <contour>
      <point x="287" y="-10" type="line"/>
      <point x="288" y="7"/>
      <point x="289" y="26"/>
      <point x="289" y="45" type="curve" smooth="yes"/>
      <point x="289" y="251"/>
      <point x="240" y="539"/>
      <point x="184" y="724" type="curve"/>
      <point x="98" y="708" type="line"/>
      <point x="156" y="511"/>
      <point x="201" y="214"/>
      <point x="201" y="39" type="curve" smooth="yes"/>
      <point x="201" y="30"/>
      <point x="201" y="8"/>
      <point x="200" y="0" type="curve"/>
    </contour>
  </outline>
</glyph>
<glyph name="u10859" format="2">
  <advance width="599"/>
  <unicode hex="10859"/>
  <outline>
    <contour>
      <point x="287" y="-10" type="line"/>
      <point x="288" y="7"/>
      <point x="289" y="26"/>
      <point x="289" y="45" type="curve" smooth="yes"/>
      <point x="289" y="251"/>
      <point x="240" y="539"/>
      <point x="184" y="724" type="curve"/>
      <point x="98" y="708" type="line"/>
      <point x="156" y="511"/>
      <point x="201" y="214"/>
      <point x="201" y="39" type="curve" smooth="yes"/>
      <point x="201" y="30"/>
      <point x="201" y="8"/>
      <point x="200" y="0" type="curve"/>
    </contour>
    <contour>
      <point x="410" y="-10" type="line"/>
      <point x="473" y="190"/>
      <point x="501" y="458"/>
      <point x="501" y="669" type="curve" smooth="yes"/>
      <point x="501" y="724" type="line"/>
      <point x="413" y="708" type="line"/>
      <point x="413" y="687" type="line" smooth="yes"/>
      <point x="413" y="465"/>
      <point x="380" y="186"/>
      <point x="329" y="12" type="curve"/>
    </contour>
  </outline>
</glyph>
<glyph name="u1085B" format="2">
  <advance width="761"/>
  <unicode hex="1085B"/>
  <outline>
    <contour>
      <point x="610" y="126" type="line"/>
      <point x="669" y="252"/>
      <point x="688" y="348"/>
      <point x="688" y="430" type="curve" smooth="yes"/>
      <point x="688" y="438"/>
      <point x="686" y="447"/>
      <point x="664" y="454" type="curve" smooth="yes"/>
      <point x="587" y="477"/>
      <point x="457" y="494"/>
      <point x="359" y="494" type="curve" smooth="yes"/>
      <point x="256" y="494"/>
      <point x="151" y="486"/>
      <point x="73" y="473" type="curve"/>
      <point x="83" y="393" type="line"/>
      <point x="157" y="406"/>
      <point x="247" y="413"/>
      <point x="335" y="413" type="curve" smooth="yes"/>
      <point x="416" y="413"/>
      <point x="518" y="402"/>
      <point x="598" y="386" type="curve"/>
      <point x="593" y="328"/>
      <point x="574" y="255"/>
      <point x="534" y="165" type="curve"/>
    </contour>
  </outline>
</glyph>
<glyph name="u1085C" format="2">
  <advance width="817"/>
  <unicode hex="1085C"/>
  <outline>
    <contour>
      <point x="684" y="38" type="line"/>
      <point x="729" y="146"/>
      <point x="744" y="229"/>
      <point x="744" y="303" type="curve" smooth="yes"/>
      <point x="744" y="309"/>
      <point x="743" y="320"/>
      <point x="725" y="326" type="curve" smooth="yes"/>
      <point x="679" y="340"/>
      <point x="608" y="353"/>
      <point x="537" y="360" type="curve"/>
      <point x="559" y="432"/>
      <point x="568" y="492"/>
      <point x="568" y="547" type="curve" smooth="yes"/>
      <point x="568" y="553"/>
      <point x="567" y="565"/>
      <point x="552" y="570" type="curve" smooth="yes"/>
      <point x="468" y="597"/>
      <point x="337" y="611"/>
      <point x="240" y="611" type="curve" smooth="yes"/>
      <point x="184" y="611"/>
      <point x="126" y="608"/>
      <point x="73" y="604" type="curve"/>
      <point x="82" y="525" type="line"/>
      <point x="125" y="528"/>
      <point x="171" y="530"/>
      <point x="216" y="530" type="curve" smooth="yes"/>
      <point x="296" y="530"/>
      <point x="398" y="520"/>
      <point x="479" y="503" type="curve"/>
      <point x="476" y="464"/>
      <point x="465" y="419"/>
      <point x="447" y="366" type="curve"/>
      <point x="437" y="366"/>
      <point x="426" y="367"/>
      <point x="416" y="367" type="curve" smooth="yes"/>
      <point x="360" y="367"/>
      <point x="302" y="364"/>
      <point x="250" y="360" type="curve"/>
      <point x="258" y="281" type="line"/>
      <point x="301" y="284"/>
      <point x="347" y="286"/>
      <point x="392" y="286" type="curve" smooth="yes"/>
      <point x="472" y="286"/>
      <point x="574" y="275"/>
      <point x="655" y="259" type="curve"/>
      <point x="650" y="208"/>
      <point x="635" y="145"/>
      <point x="604" y="69" type="curve"/>
    </contour>
  </outline>
</glyph>
<glyph name="u1085D" format="2">
  <advance width="790"/>
  <unicode hex="1085D"/>
  <outline>
    <contour>
      <point x="640" y="126" type="line"/>
      <point x="698" y="252"/>
      <point x="717" y="348"/>
      <point x="717" y="430" type="curve" smooth="yes"/>
      <point x="717" y="438"/>
      <point x="715" y="447"/>
      <point x="693" y="454" type="curve" smooth="yes"/>
      <point x="617" y="478"/>
      <point x="486" y="494"/>
      <point x="389" y="494" type="curve" smooth="yes"/>
      <point x="321" y="494"/>
      <point x="254" y="491"/>
      <point x="204" y="485" type="curve"/>
      <point x="210" y="515"/>
      <point x="227" y="573"/>
      <point x="250" y="626" type="curve"/>
      <point x="170" y="658" type="line"/>
      <point x="146" y="593"/>
      <point x="114" y="482"/>
      <point x="105" y="392" type="curve"/>
      <point x="180" y="406"/>
      <point x="276" y="413"/>
      <point x="365" y="413" type="curve" smooth="yes"/>
      <point x="445" y="413"/>
      <point x="547" y="402"/>
      <point x="627" y="386" type="curve"/>
      <point x="623" y="328"/>
      <point x="604" y="255"/>
      <point x="563" y="165" type="curve"/>
    </contour>
    <contour>
      <point x="375" y="231" type="curve" smooth="yes"/>
      <point x="418" y="231"/>
      <point x="453" y="256"/>
      <point x="453" y="287" type="curve" smooth="yes"/>
      <point x="453" y="317"/>
      <point x="418" y="343"/>
      <point x="375" y="343" type="curve" smooth="yes"/>
      <point x="333" y="343"/>
      <point x="298" y="317"/>
      <point x="298" y="287" type="curve" smooth="yes"/>
      <point x="298" y="256"/>
      <point x="333" y="231"/>
    </contour>
  </outline>
</glyph>
<glyph name="u1085E" format="2">
  <advance width="753"/>
  <unicode hex="1085E"/>
  <outline>
    <contour>
      <point x="113" y="-24" type="line"/>
      <point x="188" y="15"/>
      <point x="302" y="104"/>
      <point x="358" y="211" type="curve"/>
      <point x="388" y="176"/>
      <point x="431" y="157"/>
      <point x="494" y="157" type="curve" smooth="yes"/>
      <point x="544" y="157"/>
      <point x="604" y="171"/>
      <point x="680" y="200" type="curve"/>
      <point x="653" y="275" type="line"/>
      <point x="587" y="250"/>
      <point x="535" y="237"/>
      <point x="504" y="237" type="curve" smooth="yes"/>
      <point x="414" y="237"/>
      <point x="392" y="287"/>
      <point x="392" y="410" type="curve" smooth="yes"/>
      <point x="392" y="524"/>
      <point x="422" y="684"/>
      <point x="511" y="872" type="curve"/>
      <point x="431" y="900" type="line"/>
      <point x="367" y="764"/>
      <point x="333" y="648"/>
      <point x="318" y="548" type="curve"/>
      <point x="289" y="571"/>
      <point x="250" y="584"/>
      <point x="200" y="584" type="curve" smooth="yes"/>
      <point x="169" y="584"/>
      <point x="135" y="579"/>
      <point x="95" y="567" type="curve"/>
      <point x="121" y="492" type="line"/>
      <point x="149" y="500"/>
      <point x="173" y="503"/>
      <point x="190" y="503" type="curve" smooth="yes"/>
      <point x="280" y="503"/>
      <point x="307" y="454"/>
      <point x="307" y="331" type="curve" smooth="yes"/>
      <point x="307" y="216"/>
      <point x="174" y="112"/>
      <point x="73" y="51" type="curve"/>
    </contour>
  </outline>
</glyph>
<glyph name="u1085F" format="2">
  <advance width="790"/>
  <unicode hex="1085F"/>
  <outline>
    <contour>
      <point x="629" y="-40" type="line"/>
      <point x="688" y="86"/>
      <point x="707" y="182"/>
      <point x="707" y="264" type="curve" smooth="yes"/>
      <point x="707" y="272"/>
      <point x="705" y="282"/>
      <point x="683" y="288" type="curve" smooth="yes"/>
      <point x="668" y="292" type="line"/>
      <point x="704" y="385"/>
      <point x="717" y="460"/>
      <point x="717" y="527" type="curve" smooth="yes"/>
      <point x="717" y="535"/>
      <point x="715" y="544"/>
      <point x="693" y="551" type="curve" smooth="yes"/>
      <point x="617" y="574"/>
      <point x="486" y="591"/>
      <point x="389" y="591" type="curve" smooth="yes"/>
      <point x="321" y="591"/>
      <point x="254" y="588"/>
      <point x="204" y="583" type="curve"/>
      <point x="210" y="612"/>
      <point x="227" y="671"/>
      <point x="250" y="724" type="curve"/>
      <point x="170" y="755" type="line"/>
      <point x="146" y="690"/>
      <point x="114" y="580"/>
      <point x="105" y="490" type="curve"/>
      <point x="180" y="503"/>
      <point x="276" y="510"/>
      <point x="365" y="510" type="curve" smooth="yes"/>
      <point x="445" y="510"/>
      <point x="547" y="500"/>
      <point x="627" y="483" type="curve"/>
      <point x="624" y="436"/>
      <point x="610" y="378"/>
      <point x="583" y="310" type="curve"/>
      <point x="517" y="321"/>
      <point x="440" y="328"/>
      <point x="378" y="328" type="curve" smooth="yes"/>
      <point x="291" y="328"/>
      <point x="201" y="322"/>
      <point x="129" y="312" type="curve"/>
      <point x="139" y="232" type="line"/>
      <point x="205" y="242"/>
      <point x="280" y="247"/>
      <point x="354" y="247" type="curve" smooth="yes"/>
      <point x="435" y="247"/>
      <point x="537" y="236"/>
      <point x="617" y="220" type="curve"/>
      <point x="612" y="162"/>
      <point x="593" y="89"/>
      <point x="553" y="-1" type="curve"/>
    </contour>
    <contour>
      <point x="462" y="378" type="curve"/>
      <point x="474" y="459" type="line"/>
      <point x="434" y="463"/>
      <point x="395" y="465"/>
      <point x="361" y="465" type="curve" smooth="yes"/>
      <point x="334" y="465"/>
      <point x="307" y="464"/>
      <point x="281" y="463" type="curve"/>
      <point x="284" y="383" type="line"/>
      <point x="302" y="384"/>
      <point x="319" y="384"/>
      <point x="337" y="384" type="curve" smooth="yes"/>
      <point x="375" y="384"/>
      <point x="419" y="382"/>
    </contour>
  </outline>
</glyph>
